<mxfile host="app.diagrams.net" modified="2022-05-31T05:47:37.903Z" agent="5.0 (Macintosh; Intel Mac OS X 10_15_7) AppleWebKit/537.36 (KHTML, like Gecko) Chrome/93.0.4577.82 Safari/537.36" etag="7zYiZrJX6uSKPYyDacuf" version="16.6.3" type="github">
  <diagram name="Page-1" id="f1b7ffb7-ca1e-a977-7cf5-a751b3c06c05">
    <mxGraphModel dx="1186" dy="663" grid="1" gridSize="10" guides="1" tooltips="1" connect="1" arrows="1" fold="1" page="1" pageScale="1" pageWidth="826" pageHeight="1169" background="none" math="0" shadow="0">
      <root>
        <mxCell id="0" />
        <mxCell id="1" parent="0" />
        <mxCell id="L5aHS46ctUy5Xd3aezcy-64" style="edgeStyle=orthogonalEdgeStyle;rounded=0;orthogonalLoop=1;jettySize=auto;html=1;" edge="1" parent="1" source="L5aHS46ctUy5Xd3aezcy-61" target="L5aHS46ctUy5Xd3aezcy-63">
          <mxGeometry relative="1" as="geometry" />
        </mxCell>
        <mxCell id="L5aHS46ctUy5Xd3aezcy-61" value="WebService服务接口" style="rounded=0;whiteSpace=wrap;html=1;" vertex="1" parent="1">
          <mxGeometry x="190" y="130" width="500" height="60" as="geometry" />
        </mxCell>
        <mxCell id="L5aHS46ctUy5Xd3aezcy-67" style="edgeStyle=orthogonalEdgeStyle;rounded=0;orthogonalLoop=1;jettySize=auto;html=1;" edge="1" parent="1" source="L5aHS46ctUy5Xd3aezcy-62" target="L5aHS46ctUy5Xd3aezcy-77">
          <mxGeometry relative="1" as="geometry" />
        </mxCell>
        <mxCell id="L5aHS46ctUy5Xd3aezcy-62" value="System Middlewares" style="rounded=0;whiteSpace=wrap;html=1;" vertex="1" parent="1">
          <mxGeometry x="190" y="310" width="500" height="60" as="geometry" />
        </mxCell>
        <mxCell id="L5aHS46ctUy5Xd3aezcy-65" style="edgeStyle=orthogonalEdgeStyle;rounded=0;orthogonalLoop=1;jettySize=auto;html=1;entryX=0.5;entryY=0;entryDx=0;entryDy=0;" edge="1" parent="1" source="L5aHS46ctUy5Xd3aezcy-63" target="L5aHS46ctUy5Xd3aezcy-62">
          <mxGeometry relative="1" as="geometry" />
        </mxCell>
        <mxCell id="L5aHS46ctUy5Xd3aezcy-63" value="System Authentication" style="rounded=0;whiteSpace=wrap;html=1;" vertex="1" parent="1">
          <mxGeometry x="190" y="220" width="500" height="60" as="geometry" />
        </mxCell>
        <mxCell id="L5aHS46ctUy5Xd3aezcy-103" style="edgeStyle=orthogonalEdgeStyle;rounded=0;orthogonalLoop=1;jettySize=auto;html=1;entryX=0.5;entryY=0;entryDx=0;entryDy=0;" edge="1" parent="1" source="L5aHS46ctUy5Xd3aezcy-66" target="L5aHS46ctUy5Xd3aezcy-97">
          <mxGeometry relative="1" as="geometry" />
        </mxCell>
        <mxCell id="L5aHS46ctUy5Xd3aezcy-66" value="通讯协议接口&lt;br&gt;(Pubnub或Firebase)" style="rounded=0;whiteSpace=wrap;html=1;" vertex="1" parent="1">
          <mxGeometry x="190" y="620" width="150" height="50" as="geometry" />
        </mxCell>
        <mxCell id="L5aHS46ctUy5Xd3aezcy-75" style="edgeStyle=orthogonalEdgeStyle;rounded=0;orthogonalLoop=1;jettySize=auto;html=1;entryX=0.5;entryY=0;entryDx=0;entryDy=0;" edge="1" parent="1" source="L5aHS46ctUy5Xd3aezcy-80" target="L5aHS46ctUy5Xd3aezcy-74">
          <mxGeometry relative="1" as="geometry">
            <Array as="points" />
          </mxGeometry>
        </mxCell>
        <mxCell id="L5aHS46ctUy5Xd3aezcy-92" value="写入&lt;br&gt;(已读、新消息、&lt;br&gt;更新timetoken等)" style="edgeLabel;html=1;align=center;verticalAlign=middle;resizable=0;points=[];" vertex="1" connectable="0" parent="L5aHS46ctUy5Xd3aezcy-75">
          <mxGeometry x="-0.1917" y="1" relative="1" as="geometry">
            <mxPoint as="offset" />
          </mxGeometry>
        </mxCell>
        <mxCell id="L5aHS46ctUy5Xd3aezcy-68" value="发布消息&lt;br&gt;(Publish)" style="rounded=0;whiteSpace=wrap;html=1;" vertex="1" parent="1">
          <mxGeometry x="190" y="790" width="70" height="60" as="geometry" />
        </mxCell>
        <mxCell id="L5aHS46ctUy5Xd3aezcy-95" style="edgeStyle=orthogonalEdgeStyle;rounded=0;orthogonalLoop=1;jettySize=auto;html=1;entryX=0.224;entryY=1;entryDx=0;entryDy=0;entryPerimeter=0;exitX=0.75;exitY=0;exitDx=0;exitDy=0;" edge="1" parent="1" source="L5aHS46ctUy5Xd3aezcy-66" target="L5aHS46ctUy5Xd3aezcy-80">
          <mxGeometry relative="1" as="geometry" />
        </mxCell>
        <mxCell id="L5aHS46ctUy5Xd3aezcy-96" value="回调通知" style="edgeLabel;html=1;align=center;verticalAlign=middle;resizable=0;points=[];" vertex="1" connectable="0" parent="L5aHS46ctUy5Xd3aezcy-95">
          <mxGeometry x="-0.1415" relative="1" as="geometry">
            <mxPoint as="offset" />
          </mxGeometry>
        </mxCell>
        <mxCell id="L5aHS46ctUy5Xd3aezcy-71" value="接收消息&lt;br&gt;(Subscribe)" style="rounded=0;whiteSpace=wrap;html=1;" vertex="1" parent="1">
          <mxGeometry x="270" y="790" width="70" height="60" as="geometry" />
        </mxCell>
        <mxCell id="L5aHS46ctUy5Xd3aezcy-91" style="edgeStyle=orthogonalEdgeStyle;rounded=0;orthogonalLoop=1;jettySize=auto;html=1;exitX=0.75;exitY=0;exitDx=0;exitDy=0;entryX=0.75;entryY=1;entryDx=0;entryDy=0;" edge="1" parent="1" source="L5aHS46ctUy5Xd3aezcy-74" target="L5aHS46ctUy5Xd3aezcy-80">
          <mxGeometry relative="1" as="geometry" />
        </mxCell>
        <mxCell id="L5aHS46ctUy5Xd3aezcy-93" value="读取&lt;br&gt;未读消息、rooms、&lt;br&gt;历史消息等" style="edgeLabel;html=1;align=center;verticalAlign=middle;resizable=0;points=[];" vertex="1" connectable="0" parent="L5aHS46ctUy5Xd3aezcy-91">
          <mxGeometry x="0.175" relative="1" as="geometry">
            <mxPoint as="offset" />
          </mxGeometry>
        </mxCell>
        <mxCell id="L5aHS46ctUy5Xd3aezcy-74" value="数据库" style="rounded=0;whiteSpace=wrap;html=1;" vertex="1" parent="1">
          <mxGeometry x="190" y="880" width="500" height="60" as="geometry" />
        </mxCell>
        <mxCell id="L5aHS46ctUy5Xd3aezcy-78" style="edgeStyle=orthogonalEdgeStyle;rounded=0;orthogonalLoop=1;jettySize=auto;html=1;entryX=0.25;entryY=0;entryDx=0;entryDy=0;exitX=0.25;exitY=1;exitDx=0;exitDy=0;" edge="1" parent="1" source="L5aHS46ctUy5Xd3aezcy-77" target="L5aHS46ctUy5Xd3aezcy-80">
          <mxGeometry relative="1" as="geometry" />
        </mxCell>
        <mxCell id="L5aHS46ctUy5Xd3aezcy-89" value="数据接收" style="edgeLabel;html=1;align=center;verticalAlign=middle;resizable=0;points=[];" vertex="1" connectable="0" parent="L5aHS46ctUy5Xd3aezcy-78">
          <mxGeometry x="-0.2667" relative="1" as="geometry">
            <mxPoint as="offset" />
          </mxGeometry>
        </mxCell>
        <mxCell id="L5aHS46ctUy5Xd3aezcy-77" value="与客户端的连接&lt;br&gt;(Websocket连接)" style="rounded=0;whiteSpace=wrap;html=1;" vertex="1" parent="1">
          <mxGeometry x="190" y="400" width="500" height="60" as="geometry" />
        </mxCell>
        <mxCell id="L5aHS46ctUy5Xd3aezcy-81" style="edgeStyle=orthogonalEdgeStyle;rounded=0;orthogonalLoop=1;jettySize=auto;html=1;exitX=0.072;exitY=0.98;exitDx=0;exitDy=0;exitPerimeter=0;entryX=0.25;entryY=0;entryDx=0;entryDy=0;" edge="1" parent="1" source="L5aHS46ctUy5Xd3aezcy-80" target="L5aHS46ctUy5Xd3aezcy-66">
          <mxGeometry relative="1" as="geometry">
            <mxPoint x="270" y="540" as="sourcePoint" />
          </mxGeometry>
        </mxCell>
        <mxCell id="L5aHS46ctUy5Xd3aezcy-82" value="注册回调" style="edgeLabel;html=1;align=center;verticalAlign=middle;resizable=0;points=[];" vertex="1" connectable="0" parent="L5aHS46ctUy5Xd3aezcy-81">
          <mxGeometry x="-0.122" relative="1" as="geometry">
            <mxPoint x="-6" as="offset" />
          </mxGeometry>
        </mxCell>
        <mxCell id="L5aHS46ctUy5Xd3aezcy-87" style="edgeStyle=orthogonalEdgeStyle;rounded=0;orthogonalLoop=1;jettySize=auto;html=1;entryX=0.75;entryY=1;entryDx=0;entryDy=0;exitX=0.75;exitY=0;exitDx=0;exitDy=0;" edge="1" parent="1" source="L5aHS46ctUy5Xd3aezcy-80" target="L5aHS46ctUy5Xd3aezcy-77">
          <mxGeometry relative="1" as="geometry" />
        </mxCell>
        <mxCell id="L5aHS46ctUy5Xd3aezcy-88" value="数据推送" style="edgeLabel;html=1;align=center;verticalAlign=middle;resizable=0;points=[];" vertex="1" connectable="0" parent="L5aHS46ctUy5Xd3aezcy-87">
          <mxGeometry x="-0.1333" relative="1" as="geometry">
            <mxPoint as="offset" />
          </mxGeometry>
        </mxCell>
        <mxCell id="L5aHS46ctUy5Xd3aezcy-80" value="处理中间件" style="rounded=0;whiteSpace=wrap;html=1;" vertex="1" parent="1">
          <mxGeometry x="190" y="510" width="500" height="60" as="geometry" />
        </mxCell>
        <mxCell id="L5aHS46ctUy5Xd3aezcy-101" style="edgeStyle=orthogonalEdgeStyle;rounded=0;orthogonalLoop=1;jettySize=auto;html=1;entryX=0.5;entryY=0;entryDx=0;entryDy=0;" edge="1" parent="1" source="L5aHS46ctUy5Xd3aezcy-97" target="L5aHS46ctUy5Xd3aezcy-68">
          <mxGeometry relative="1" as="geometry" />
        </mxCell>
        <mxCell id="L5aHS46ctUy5Xd3aezcy-102" style="edgeStyle=orthogonalEdgeStyle;rounded=0;orthogonalLoop=1;jettySize=auto;html=1;entryX=0.5;entryY=0;entryDx=0;entryDy=0;" edge="1" parent="1" source="L5aHS46ctUy5Xd3aezcy-97" target="L5aHS46ctUy5Xd3aezcy-71">
          <mxGeometry relative="1" as="geometry" />
        </mxCell>
        <mxCell id="L5aHS46ctUy5Xd3aezcy-97" value="数据封装/解封" style="rounded=0;whiteSpace=wrap;html=1;" vertex="1" parent="1">
          <mxGeometry x="190" y="700" width="150" height="40" as="geometry" />
        </mxCell>
      </root>
    </mxGraphModel>
  </diagram>
</mxfile>
